ply
format ascii 1.0
comment https://github.com/mikedh/trimesh
element vertex 778
property float x
property float y
property float z
element face 1532
property list uchar int vertex_indices
end_header
0.05064531 0.00000000 0.00315654
0.05119916 0.00000000 0.00332560
0.05180347 0.00000000 0.00342779
0.05246581 0.00000000 0.00346185
0.05306358 0.00000000 0.00343685
0.05415171 0.00000000 0.00323689
0.05509666 0.00000000 0.00283696
0.05589841 0.00000000 0.00223707
0.05624558 0.00000000 0.00186213
0.05655428 0.00000000 0.00144036
0.05704820 0.00000000 0.00046577
0.05737748 0.00000000 -0.00068355
0.05754212 0.00000000 -0.00200761
0.05756270 0.00000000 -0.00273516
0.05756270 0.00000000 -0.01204078
0.06047954 0.00000000 -0.01204078
0.06047954 -0.00000000 0.00562172
0.05756270 -0.00000000 0.00562172
0.05756270 -0.00000000 0.00287646
0.05706941 -0.00000000 0.00362933
0.05587846 -0.00000000 0.00482281
0.05518079 -0.00000000 0.00526342
0.05440711 0.00000000 0.00560563
0.05262320 0.00000000 0.00599673
0.05161297 0.00000000 0.00604562
0.05129882 0.00000000 0.00603553
0.05095188 0.00000000 0.00600525
0.05056962 0.00000000 0.00595857
0.05014950 0.00000000 0.00588918
0.05013436 0.00000000 0.00291179
0.05064531 0.00064594 0.00315654
0.05119916 0.00064594 0.00332560
0.05180347 0.00064594 0.00342779
0.05246581 0.00064594 0.00346185
0.05306358 0.00064594 0.00343685
0.05415171 0.00064594 0.00323689
0.05509666 0.00064594 0.00283696
0.05589841 0.00064594 0.00223707
0.05624558 0.00064594 0.00186213
0.05655428 0.00064594 0.00144036
0.05704820 0.00064594 0.00046577
0.05737748 0.00064594 -0.00068355
0.05754212 0.00064594 -0.00200761
0.05756270 0.00064594 -0.00273516
0.05756270 0.00064594 -0.01204078
0.06047954 0.00064594 -0.01204078
0.06047954 0.00064594 0.00562172
0.05756270 0.00064594 0.00562172
0.05756270 0.00064594 0.00287646
0.05706941 0.00064594 0.00362933
0.05587846 0.00064594 0.00482281
0.05518079 0.00064594 0.00526342
0.05440711 0.00064594 0.00560563
0.05262320 0.00064594 0.00599673
0.05161297 0.00064594 0.00604562
0.05129882 0.00064594 0.00603553
0.05095188 0.00064594 0.00600525
0.05056962 0.00064594 0.00595857
0.05014950 0.00064594 0.00588918
0.05013436 0.00064594 0.00291179
0.04005302 0.00000000 0.00600714
0.03836373 0.00000000 0.00569931
0.03687755 0.00000000 0.00508364
0.03559450 0.00000000 0.00416015
0.03502914 0.00000000 0.00358296
0.03452174 0.00000000 0.00293899
0.03370989 0.00000000 0.00147364
0.03316867 0.00000000 -0.00022827
0.03289805 0.00000000 -0.00216673
0.03286422 0.00000000 -0.00322467
0.03289805 0.00000000 -0.00427929
0.03316867 0.00000000 -0.00621397
0.03370989 0.00000000 -0.00791587
0.03452174 0.00000000 -0.00938501
0.03502914 0.00000000 -0.01003230
0.03559450 0.00000000 -0.01061067
0.03687755 0.00000000 -0.01153605
0.03836373 0.00000000 -0.01215298
0.04005302 0.00000000 -0.01246144
0.04097383 0.00000000 -0.01250000
0.04189812 0.00000000 -0.01246144
0.04359246 0.00000000 -0.01215298
0.04508115 0.00000000 -0.01153605
0.04636421 0.00000000 -0.01061067
0.04692862 0.00000000 -0.01003230
0.04743247 0.00000000 -0.00938501
0.04823864 0.00000000 -0.00791587
0.04877608 0.00000000 -0.00621397
0.04904481 0.00000000 -0.00427929
0.04907840 0.00000000 -0.00322467
0.04904481 0.00000000 -0.00216673
0.04877608 0.00000000 -0.00022827
0.04823864 0.00000000 0.00147364
0.04743247 0.00000000 0.00293899
0.04692862 0.00000000 0.00358296
0.04636421 0.00000000 0.00416015
0.04508115 0.00000000 0.00508364
0.04359246 0.00000000 0.00569931
0.04189812 0.00000000 0.00600714
0.04097383 0.00000000 0.00604562
0.04154148 0.00000000 0.00355954
0.04258546 0.00000000 0.00333182
0.04350769 0.00000000 0.00287638
0.04430818 0.00000000 0.00219322
0.04466277 0.00000000 0.00176625
0.04498094 0.00000000 0.00128976
0.04548999 0.00000000 0.00021045
0.04582936 0.00000000 -0.00103728
0.04599905 0.00000000 -0.00245343
0.04602026 0.00000000 -0.00322467
0.04599921 0.00000000 -0.00399590
0.04583078 0.00000000 -0.00541206
0.04549393 0.00000000 -0.00665979
0.04498866 0.00000000 -0.00773909
0.04467287 0.00000000 -0.00821558
0.04431922 0.00000000 -0.00864256
0.04351873 0.00000000 -0.00932572
0.04259397 0.00000000 -0.00978116
0.04154495 0.00000000 -0.01000888
0.04097383 0.00000000 -0.01003734
0.04040863 0.00000000 -0.01000880
0.03936907 0.00000000 -0.00978045
0.03845062 0.00000000 -0.00932375
0.03765329 0.00000000 -0.00863869
0.03730004 0.00000000 -0.00821054
0.03698187 0.00000000 -0.00773191
0.03647282 0.00000000 -0.00665072
0.03613344 0.00000000 -0.00540425
0.03596376 0.00000000 -0.00399251
0.03594255 0.00000000 -0.00322467
0.03596376 0.00000000 -0.00246029
0.03613344 0.00000000 -0.00105360
0.03647282 0.00000000 0.00019034
0.03698187 0.00000000 0.00127154
0.03730004 0.00000000 0.00175111
0.03765329 0.00000000 0.00218163
0.03845062 0.00000000 0.00287047
0.03936907 0.00000000 0.00332970
0.04040863 0.00000000 0.00355931
0.04097383 0.00000000 0.00358801
0.04005302 0.00064594 0.00600714
0.03836373 0.00064594 0.00569931
0.03687755 0.00064594 0.00508364
0.03559450 0.00064594 0.00416015
0.03502914 0.00064594 0.00358296
0.03452174 0.00064594 0.00293899
0.03370989 0.00064594 0.00147364
0.03316867 0.00064594 -0.00022827
0.03289805 0.00064594 -0.00216673
0.03286422 0.00064594 -0.00322467
0.03289805 0.00064594 -0.00427929
0.03316867 0.00064594 -0.00621397
0.03370989 0.00064594 -0.00791587
0.03452174 0.00064594 -0.00938501
0.03502914 0.00064594 -0.01003230
0.03559450 0.00064594 -0.01061067
0.03687755 0.00064594 -0.01153605
0.03836373 0.00064594 -0.01215298
0.04005302 0.00064594 -0.01246144
0.04097383 0.00064594 -0.01250000
0.04189812 0.00064594 -0.01246144
0.04359246 0.00064594 -0.01215298
0.04508115 0.00064594 -0.01153605
0.04636421 0.00064594 -0.01061067
0.04692862 0.00064594 -0.01003230
0.04743247 0.00064594 -0.00938501
0.04823864 0.00064594 -0.00791587
0.04877608 0.00064594 -0.00621397
0.04904481 0.00064594 -0.00427929
0.04907840 0.00064594 -0.00322467
0.04904481 0.00064594 -0.00216673
0.04877608 0.00064594 -0.00022827
0.04823864 0.00064594 0.00147364
0.04743247 0.00064594 0.00293899
0.04692862 0.00064594 0.00358296
0.04636421 0.00064594 0.00416015
0.04508115 0.00064594 0.00508364
0.04359246 0.00064594 0.00569931
0.04189812 0.00064594 0.00600714
0.04097383 0.00064594 0.00604562
0.04154148 0.00064594 0.00355954
0.04258546 0.00064594 0.00333182
0.04350769 0.00064594 0.00287638
0.04430818 0.00064594 0.00219322
0.04466277 0.00064594 0.00176625
0.04498094 0.00064594 0.00128976
0.04548999 0.00064594 0.00021045
0.04582936 0.00064594 -0.00103728
0.04599905 0.00064594 -0.00245343
0.04602026 0.00064594 -0.00322467
0.04599921 0.00064594 -0.00399590
0.04583078 0.00064594 -0.00541206
0.04549393 0.00064594 -0.00665979
0.04498866 0.00064594 -0.00773909
0.04467287 0.00064594 -0.00821558
0.04431922 0.00064594 -0.00864256
0.04351873 0.00064594 -0.00932572
0.04259397 0.00064594 -0.00978116
0.04154495 0.00064594 -0.01000888
0.04097383 0.00064594 -0.01003734
0.04040863 0.00064594 -0.01000880
0.03936907 0.00064594 -0.00978045
0.03845062 0.00064594 -0.00932375
0.03765329 0.00064594 -0.00863869
0.03730004 0.00064594 -0.00821054
0.03698187 0.00064594 -0.00773191
0.03647282 0.00064594 -0.00665072
0.03613344 0.00064594 -0.00540425
0.03596376 0.00064594 -0.00399251
0.03594255 0.00064594 -0.00322467
0.03596376 0.00064594 -0.00246029
0.03613344 0.00064594 -0.00105360
0.03647282 0.00064594 0.00019034
0.03698187 0.00064594 0.00127154
0.03730004 0.00064594 0.00175111
0.03765329 0.00064594 0.00218163
0.03845062 0.00064594 0.00287047
0.03936907 0.00064594 0.00332970
0.04040863 0.00064594 0.00355931
0.04097383 0.00064594 0.00358801
0.02518546 0.00000000 0.00562172
0.01921049 0.00000000 0.00562172
0.01921049 0.00000000 0.00336597
0.02518546 0.00000000 0.00336597
0.02518546 0.00000000 -0.00622224
0.02514855 0.00000000 -0.00720567
0.02485334 0.00000000 -0.00859343
0.02459502 0.00000000 -0.00899778
0.02422317 0.00000000 -0.00926713
0.02301959 0.00000000 -0.00957496
0.02218788 0.00000000 -0.00961344
0.01921049 0.00000000 -0.00961344
0.01921049 0.00000000 -0.01204078
0.02218788 0.00000000 -0.01204078
0.02299554 0.00000000 -0.01202122
0.02441548 0.00000000 -0.01186478
0.02557490 0.00000000 -0.01155190
0.02647379 0.00000000 -0.01108258
0.02682555 0.00000000 -0.01078926
0.02712478 0.00000000 -0.01044303
0.02760356 0.00000000 -0.00955801
0.02792275 0.00000000 -0.00841626
0.02808234 0.00000000 -0.00701777
0.02810229 0.00000000 -0.00622224
0.02810229 0.00000000 0.00336597
0.03023188 0.00000000 0.00336597
0.03023188 0.00000000 0.00562172
0.02810229 0.00000000 0.00562172
0.02810229 0.00000000 0.01063787
0.02518546 0.00000000 0.01063787
0.02518546 0.00064594 0.00562172
0.01921049 0.00064594 0.00562172
0.01921049 0.00064594 0.00336597
0.02518546 0.00064594 0.00336597
0.02518546 0.00064594 -0.00622224
0.02514855 0.00064594 -0.00720567
0.02485334 0.00064594 -0.00859343
0.02459502 0.00064594 -0.00899778
0.02422317 0.00064594 -0.00926713
0.02301959 0.00064594 -0.00957496
0.02218788 0.00064594 -0.00961344
0.01921049 0.00064594 -0.00961344
0.01921049 0.00064594 -0.01204078
0.02218788 0.00064594 -0.01204078
0.02299554 0.00064594 -0.01202122
0.02441548 0.00064594 -0.01186478
0.02557490 0.00064594 -0.01155190
0.02647379 0.00064594 -0.01108258
0.02682555 0.00064594 -0.01078926
0.02712478 0.00064594 -0.01044303
0.02760356 0.00064594 -0.00955801
0.02792275 0.00064594 -0.00841626
0.02808234 0.00064594 -0.00701777
0.02810229 0.00064594 -0.00622224
0.02810229 0.00064594 0.00336597
0.03023188 0.00064594 0.00336597
0.03023188 0.00064594 0.00562172
0.02810229 0.00064594 0.00562172
0.02810229 0.00064594 0.01063787
0.02518546 0.00064594 0.01063787
0.00157638 0.00000000 -0.01204078
0.00447807 0.00000000 -0.01204078
0.00447807 0.00000000 -0.00936112
0.00500574 0.00000000 -0.01011115
0.00624464 0.00000000 -0.01129706
0.00695587 0.00000000 -0.01173294
0.00773901 0.00000000 -0.01206853
0.00955320 0.00000000 -0.01245206
0.01058425 0.00000000 -0.01250000
0.01124446 0.00000000 -0.01247619
0.01246128 0.00000000 -0.01228568
0.01353996 0.00000000 -0.01190468
0.01448049 0.00000000 -0.01133317
0.01489895 0.00000000 -0.01097598
0.01527388 0.00000000 -0.01057889
0.01587377 0.00000000 -0.00968819
0.01627370 0.00000000 -0.00866882
0.01647367 0.00000000 -0.00752075
0.01649866 0.00000000 -0.00689847
0.01646752 0.00000000 -0.00617698
0.01621835 0.00000000 -0.00487122
0.01572002 0.00000000 -0.00374839
0.01497251 0.00000000 -0.00280849
0.01450532 0.00000000 -0.00240715
0.01397513 0.00000000 -0.00205232
0.01273119 0.00000000 -0.00148460
0.01124249 0.00000000 -0.00110611
0.00950905 0.00000000 -0.00091687
0.00855054 0.00000000 -0.00089322
0.00447807 0.00000000 -0.00089322
0.00447807 0.00000000 -0.00060557
0.00449865 0.00000000 -0.00011891
0.00466329 0.00000000 0.00076926
0.00499257 0.00000000 0.00154389
0.00548649 0.00000000 0.00220497
0.00579519 0.00000000 0.00249293
0.00614111 0.00000000 0.00274959
0.00693277 0.00000000 0.00316025
0.00836981 0.00000000 0.00351957
0.00949422 0.00000000 0.00358801
0.01024645 0.00000000 0.00356530
0.01172253 0.00000000 0.00338363
0.01244638 0.00000000 0.00322467
0.01315604 0.00000000 0.00302029
0.01453371 0.00000000 0.00247527
0.01520173 0.00000000 0.00213464
0.01520173 0.00000000 0.00481934
0.01363481 0.00000000 0.00535678
0.01211332 0.00000000 0.00573779
0.01063471 0.00000000 0.00596866
0.00919648 0.00000000 0.00604562
0.00826802 0.00000000 0.00601455
0.00659324 0.00000000 0.00576602
0.00516131 0.00000000 0.00526894
0.00397225 0.00000000 0.00452333
0.00346879 0.00000000 0.00405733
0.00302525 0.00000000 0.00352942
0.00231560 0.00000000 0.00228106
0.00184250 0.00000000 0.00077597
0.00160595 0.00000000 -0.00098587
0.00157638 0.00000000 -0.00196306
0.00898832 0.00000000 -0.00321426
0.01091763 0.00000000 -0.00347754
0.01186636 0.00000000 -0.00377843
0.01223948 0.00000000 -0.00396649
0.01255764 0.00000000 -0.00418491
0.01306670 0.00000000 -0.00472866
0.01340607 0.00000000 -0.00541497
0.01357576 0.00000000 -0.00624385
0.01359697 0.00000000 -0.00671175
0.01353326 0.00000000 -0.00744411
0.01302357 0.00000000 -0.00867039
0.01257759 0.00000000 -0.00916431
0.01202248 0.00000000 -0.00955951
0.01063976 0.00000000 -0.01001117
0.00981215 0.00000000 -0.01006762
0.00922282 0.00000000 -0.01004089
0.00813405 0.00000000 -0.00982705
0.00716514 0.00000000 -0.00939936
0.00631608 0.00000000 -0.00875784
0.00593649 0.00000000 -0.00835688
0.00559467 0.00000000 -0.00791162
0.00504777 0.00000000 -0.00691558
0.00468316 0.00000000 -0.00577887
0.00450086 0.00000000 -0.00450149
0.00447807 0.00000000 -0.00381005
0.00447807 0.00000000 -0.00316411
0.00736463 0.00000000 -0.00316411
0.00157638 0.00064594 -0.01204078
0.00447807 0.00064594 -0.01204078
0.00447807 0.00064594 -0.00936112
0.00500574 0.00064594 -0.01011115
0.00624464 0.00064594 -0.01129706
0.00695587 0.00064594 -0.01173294
0.00773901 0.00064594 -0.01206853
0.00955320 0.00064594 -0.01245206
0.01058425 0.00064594 -0.01250000
0.01124446 0.00064594 -0.01247619
0.01246128 0.00064594 -0.01228568
0.01353996 0.00064594 -0.01190468
0.01448049 0.00064594 -0.01133317
0.01489895 0.00064594 -0.01097598
0.01527388 0.00064594 -0.01057889
0.01587377 0.00064594 -0.00968819
0.01627370 0.00064594 -0.00866882
0.01647367 0.00064594 -0.00752075
0.01649866 0.00064594 -0.00689847
0.01646752 0.00064594 -0.00617698
0.01621835 0.00064594 -0.00487122
0.01572002 0.00064594 -0.00374839
0.01497251 0.00064594 -0.00280849
0.01450532 0.00064594 -0.00240715
0.01397513 0.00064594 -0.00205232
0.01273119 0.00064594 -0.00148460
0.01124249 0.00064594 -0.00110611
0.00950905 0.00064594 -0.00091687
0.00855054 0.00064594 -0.00089322
0.00447807 0.00064594 -0.00089322
0.00447807 0.00064594 -0.00060557
0.00449865 0.00064594 -0.00011891
0.00466329 0.00064594 0.00076926
0.00499257 0.00064594 0.00154389
0.00548649 0.00064594 0.00220497
0.00579519 0.00064594 0.00249293
0.00614111 0.00064594 0.00274959
0.00693277 0.00064594 0.00316025
0.00836981 0.00064594 0.00351957
0.00949422 0.00064594 0.00358801
0.01024645 0.00064594 0.00356530
0.01172253 0.00064594 0.00338363
0.01244638 0.00064594 0.00322467
0.01315604 0.00064594 0.00302029
0.01453371 0.00064594 0.00247527
0.01520173 0.00064594 0.00213464
0.01520173 0.00064594 0.00481934
0.01363481 0.00064594 0.00535678
0.01211332 0.00064594 0.00573779
0.01063471 0.00064594 0.00596866
0.00919648 0.00064594 0.00604562
0.00826802 0.00064594 0.00601455
0.00659324 0.00064594 0.00576602
0.00516131 0.00064594 0.00526894
0.00397225 0.00064594 0.00452333
0.00346879 0.00064594 0.00405733
0.00302525 0.00064594 0.00352942
0.00231560 0.00064594 0.00228106
0.00184250 0.00064594 0.00077597
0.00160595 0.00064594 -0.00098587
0.00157638 0.00064594 -0.00196306
0.00898832 0.00064594 -0.00321426
0.01091763 0.00064594 -0.00347754
0.01186636 0.00064594 -0.00377843
0.01223948 0.00064594 -0.00396649
0.01255764 0.00064594 -0.00418491
0.01306670 0.00064594 -0.00472866
0.01340607 0.00064594 -0.00541497
0.01357576 0.00064594 -0.00624385
0.01359697 0.00064594 -0.00671175
0.01353326 0.00064594 -0.00744411
0.01302357 0.00064594 -0.00867039
0.01257759 0.00064594 -0.00916431
0.01202248 0.00064594 -0.00955951
0.01063976 0.00064594 -0.01001117
0.00981215 0.00064594 -0.01006762
0.00922282 0.00064594 -0.01004089
0.00813405 0.00064594 -0.00982705
0.00716514 0.00064594 -0.00939936
0.00631608 0.00064594 -0.00875784
0.00593649 0.00064594 -0.00835688
0.00559467 0.00064594 -0.00791162
0.00504777 0.00064594 -0.00691558
0.00468316 0.00064594 -0.00577887
0.00450086 0.00064594 -0.00450149
0.00447807 0.00064594 -0.00381005
0.00447807 0.00064594 -0.00316411
0.00736463 0.00064594 -0.00316411
-0.00726938 0.00000000 0.00562172
-0.01324435 0.00000000 0.00562172
-0.01324435 0.00000000 0.00336597
-0.00726938 0.00000000 0.00336597
-0.00726938 0.00000000 -0.00622224
-0.00730628 0.00000000 -0.00720567
-0.00760150 0.00000000 -0.00859343
-0.00785981 0.00000000 -0.00899778
-0.00823167 0.00000000 -0.00926713
-0.00943524 0.00000000 -0.00957496
-0.01026696 0.00000000 -0.00961344
-0.01324435 0.00000000 -0.00961344
-0.01324435 0.00000000 -0.01204078
-0.01026696 0.00000000 -0.01204078
-0.00945929 0.00000000 -0.01202122
-0.00803935 0.00000000 -0.01186478
-0.00687994 0.00000000 -0.01155190
-0.00598104 0.00000000 -0.01108258
-0.00562929 0.00000000 -0.01078926
-0.00533005 0.00000000 -0.01044303
-0.00485127 0.00000000 -0.00955801
-0.00453209 0.00000000 -0.00841626
-0.00437249 0.00000000 -0.00701777
-0.00435254 0.00000000 -0.00622224
-0.00435254 0.00000000 0.00336597
-0.00222295 0.00000000 0.00336597
-0.00222295 0.00000000 0.00562172
-0.00435254 0.00000000 0.00562172
-0.00435254 0.00000000 0.01063787
-0.00726938 0.00000000 0.01063787
-0.00726938 0.00064594 0.00562172
-0.01324435 0.00064594 0.00562172
-0.01324435 0.00064594 0.00336597
-0.00726938 0.00064594 0.00336597
-0.00726938 0.00064594 -0.00622224
-0.00730628 0.00064594 -0.00720567
-0.00760150 0.00064594 -0.00859343
-0.00785981 0.00064594 -0.00899778
-0.00823167 0.00064594 -0.00926713
-0.00943524 0.00064594 -0.00957496
-0.01026696 0.00064594 -0.00961344
-0.01324435 0.00064594 -0.00961344
-0.01324435 0.00064594 -0.01204078
-0.01026696 0.00064594 -0.01204078
-0.00945929 0.00064594 -0.01202122
-0.00803935 0.00064594 -0.01186478
-0.00687994 0.00064594 -0.01155190
-0.00598104 0.00064594 -0.01108258
-0.00562929 0.00064594 -0.01078926
-0.00533005 0.00064594 -0.01044303
-0.00485127 0.00064594 -0.00955801
-0.00453209 0.00064594 -0.00841626
-0.00437249 0.00064594 -0.00701777
-0.00435254 0.00064594 -0.00622224
-0.00435254 0.00064594 0.00336597
-0.00222295 0.00064594 0.00336597
-0.00222295 0.00064594 0.00562172
-0.00435254 0.00064594 0.00562172
-0.00435254 0.00064594 0.01063787
-0.00726938 0.00064594 0.01063787
-0.01996304 0.00000000 0.00562172
-0.01996304 0.00000000 -0.01204078
-0.01706134 0.00000000 -0.01204078
-0.01706134 0.00000000 0.00562172
-0.01996304 0.00064594 0.00562172
-0.01996304 0.00064594 -0.01204078
-0.01706134 0.00064594 -0.01204078
-0.01706134 0.00064594 0.00562172
-0.01996304 0.00000000 0.01250000
-0.01996304 0.00000000 0.00882115
-0.01706134 0.00000000 0.00882115
-0.01706134 0.00000000 0.01250000
-0.01996304 0.00064594 0.01250000
-0.01996304 0.00064594 0.00882115
-0.01706134 0.00064594 0.00882115
-0.01706134 0.00064594 0.01250000
-0.03379829 0.00000000 0.00600714
-0.03548758 0.00000000 0.00569931
-0.03697375 0.00000000 0.00508364
-0.03825681 0.00000000 0.00416015
-0.03882216 0.00000000 0.00358296
-0.03932957 0.00000000 0.00293899
-0.04014141 0.00000000 0.00147364
-0.04068264 0.00000000 -0.00022827
-0.04095325 0.00000000 -0.00216673
-0.04098708 0.00000000 -0.00322467
-0.04095325 0.00000000 -0.00427929
-0.04068264 0.00000000 -0.00621397
-0.04014141 0.00000000 -0.00791587
-0.03932957 0.00000000 -0.00938501
-0.03882216 0.00000000 -0.01003230
-0.03825681 0.00000000 -0.01061067
-0.03697375 0.00000000 -0.01153605
-0.03548758 0.00000000 -0.01215298
-0.03379829 0.00000000 -0.01246144
-0.03287747 0.00000000 -0.01250000
-0.03195319 0.00000000 -0.01246144
-0.03025885 0.00000000 -0.01215298
-0.02877015 0.00000000 -0.01153605
-0.02748710 0.00000000 -0.01061067
-0.02692269 0.00000000 -0.01003230
-0.02641883 0.00000000 -0.00938501
-0.02561267 0.00000000 -0.00791587
-0.02507522 0.00000000 -0.00621397
-0.02480650 0.00000000 -0.00427929
-0.02477291 0.00000000 -0.00322467
-0.02480650 0.00000000 -0.00216673
-0.02507522 0.00000000 -0.00022827
-0.02561267 0.00000000 0.00147364
-0.02641883 0.00000000 0.00293899
-0.02692269 0.00000000 0.00358296
-0.02748710 0.00000000 0.00416015
-0.02877015 0.00000000 0.00508364
-0.03025885 0.00000000 0.00569931
-0.03195319 0.00000000 0.00600714
-0.03287747 0.00000000 0.00604562
-0.03230983 0.00000000 0.00355954
-0.03126585 0.00000000 0.00333182
-0.03034361 0.00000000 0.00287638
-0.02954312 0.00000000 0.00219322
-0.02918853 0.00000000 0.00176625
-0.02887037 0.00000000 0.00128976
-0.02836131 0.00000000 0.00021045
-0.02802194 0.00000000 -0.00103728
-0.02785226 0.00000000 -0.00245343
-0.02783105 0.00000000 -0.00322467
-0.02785210 0.00000000 -0.00399590
-0.02802052 0.00000000 -0.00541206
-0.02835737 0.00000000 -0.00665979
-0.02886265 0.00000000 -0.00773909
-0.02917844 0.00000000 -0.00821558
-0.02953209 0.00000000 -0.00864256
-0.03033257 0.00000000 -0.00932572
-0.03125733 0.00000000 -0.00978116
-0.03230636 0.00000000 -0.01000888
-0.03287747 0.00000000 -0.01003734
-0.03344267 0.00000000 -0.01000880
-0.03448224 0.00000000 -0.00978045
-0.03540068 0.00000000 -0.00932375
-0.03619802 0.00000000 -0.00863869
-0.03655127 0.00000000 -0.00821054
-0.03686943 0.00000000 -0.00773191
-0.03737849 0.00000000 -0.00665072
-0.03771786 0.00000000 -0.00540425
-0.03788755 0.00000000 -0.00399251
-0.03790876 0.00000000 -0.00322467
-0.03788755 0.00000000 -0.00246029
-0.03771786 0.00000000 -0.00105360
-0.03737849 0.00000000 0.00019034
-0.03686943 0.00000000 0.00127154
-0.03655127 0.00000000 0.00175111
-0.03619802 0.00000000 0.00218163
-0.03540068 0.00000000 0.00287047
-0.03448224 0.00000000 0.00332970
-0.03344267 0.00000000 0.00355931
-0.03287747 0.00000000 0.00358801
-0.03379829 0.00064594 0.00600714
-0.03548758 0.00064594 0.00569931
-0.03697375 0.00064594 0.00508364
-0.03825681 0.00064594 0.00416015
-0.03882216 0.00064594 0.00358296
-0.03932957 0.00064594 0.00293899
-0.04014141 0.00064594 0.00147364
-0.04068264 0.00064594 -0.00022827
-0.04095325 0.00064594 -0.00216673
-0.04098708 0.00064594 -0.00322467
-0.04095325 0.00064594 -0.00427929
-0.04068264 0.00064594 -0.00621397
-0.04014141 0.00064594 -0.00791587
-0.03932957 0.00064594 -0.00938501
-0.03882216 0.00064594 -0.01003230
-0.03825681 0.00064594 -0.01061067
-0.03697375 0.00064594 -0.01153605
-0.03548758 0.00064594 -0.01215298
-0.03379829 0.00064594 -0.01246144
-0.03287747 0.00064594 -0.01250000
-0.03195319 0.00064594 -0.01246144
-0.03025885 0.00064594 -0.01215298
-0.02877015 0.00064594 -0.01153605
-0.02748710 0.00064594 -0.01061067
-0.02692269 0.00064594 -0.01003230
-0.02641883 0.00064594 -0.00938501
-0.02561267 0.00064594 -0.00791587
-0.02507522 0.00064594 -0.00621397
-0.02480650 0.00064594 -0.00427929
-0.02477291 0.00064594 -0.00322467
-0.02480650 0.00064594 -0.00216673
-0.02507522 0.00064594 -0.00022827
-0.02561267 0.00064594 0.00147364
-0.02641883 0.00064594 0.00293899
-0.02692269 0.00064594 0.00358296
-0.02748710 0.00064594 0.00416015
-0.02877015 0.00064594 0.00508364
-0.03025885 0.00064594 0.00569931
-0.03195319 0.00064594 0.00600714
-0.03287747 0.00064594 0.00604562
-0.03230983 0.00064594 0.00355954
-0.03126585 0.00064594 0.00333182
-0.03034361 0.00064594 0.00287638
-0.02954312 0.00064594 0.00219322
-0.02918853 0.00064594 0.00176625
-0.02887037 0.00064594 0.00128976
-0.02836131 0.00064594 0.00021045
-0.02802194 0.00064594 -0.00103728
-0.02785226 0.00064594 -0.00245343
-0.02783105 0.00064594 -0.00322467
-0.02785210 0.00064594 -0.00399590
-0.02802052 0.00064594 -0.00541206
-0.02835737 0.00064594 -0.00665979
-0.02886265 0.00064594 -0.00773909
-0.02917844 0.00064594 -0.00821558
-0.02953209 0.00064594 -0.00864256
-0.03033257 0.00064594 -0.00932572
-0.03125733 0.00064594 -0.00978116
-0.03230636 0.00064594 -0.01000888
-0.03287747 0.00064594 -0.01003734
-0.03344267 0.00064594 -0.01000880
-0.03448224 0.00064594 -0.00978045
-0.03540068 0.00064594 -0.00932375
-0.03619802 0.00064594 -0.00863869
-0.03655127 0.00064594 -0.00821054
-0.03686943 0.00064594 -0.00773191
-0.03737849 0.00064594 -0.00665072
-0.03771786 0.00064594 -0.00540425
-0.03788755 0.00064594 -0.00399251
-0.03790876 0.00064594 -0.00322467
-0.03788755 0.00064594 -0.00246029
-0.03771786 0.00064594 -0.00105360
-0.03737849 0.00064594 0.00019034
-0.03686943 0.00064594 0.00127154
-0.03655127 0.00064594 0.00175111
-0.03619802 0.00064594 0.00218163
-0.03540068 0.00064594 0.00287047
-0.03448224 0.00064594 0.00332970
-0.03344267 0.00064594 0.00355931
-0.03287747 0.00064594 0.00358801
-0.06047954 0.00000000 -0.01204078
-0.05757784 0.00000000 -0.01204078
-0.05757784 0.00000000 -0.00147356
-0.05751665 0.00000000 -0.00029869
-0.05719542 0.00000000 0.00116675
-0.05682829 0.00000000 0.00194579
-0.05659883 0.00000000 0.00227594
-0.05633887 0.00000000 0.00256808
-0.05572762 0.00000000 0.00303550
-0.05499462 0.00000000 0.00334712
-0.05413988 0.00000000 0.00350293
-0.05366686 0.00000000 0.00352241
-0.05309448 0.00000000 0.00349899
-0.05204294 0.00000000 0.00331164
-0.05111565 0.00000000 0.00293694
-0.05031264 0.00000000 0.00237490
-0.04995774 0.00000000 0.00202362
-0.04963958 0.00000000 0.00163307
-0.04913052 0.00000000 0.00074932
-0.04879114 0.00000000 -0.00027132
-0.04862146 0.00000000 -0.00142885
-0.04860025 0.00000000 -0.00205894
-0.04860025 0.00000000 -0.01204078
-0.04568341 0.00000000 -0.01204078
-0.04568341 0.00000000 0.00562172
-0.04860025 0.00000000 0.00562172
-0.04860025 0.00000000 0.00287646
-0.04914526 0.00000000 0.00362333
-0.05037154 0.00000000 0.00481429
-0.05105281 0.00000000 0.00525838
-0.05178643 0.00000000 0.00560280
-0.05341643 0.00000000 0.00599642
-0.05431280 0.00000000 0.00604562
-0.05505037 0.00000000 0.00601621
-0.05638641 0.00000000 0.00578092
-0.05753700 0.00000000 0.00531034
-0.05850213 0.00000000 0.00460447
-0.05891515 0.00000000 0.00416330
-0.05928180 0.00000000 0.00366497
-0.05986845 0.00000000 0.00250177
-0.06025954 0.00000000 0.00111652
-0.06045509 0.00000000 -0.00049077
-0.06047954 0.00000000 -0.00137767
-0.06047954 0.00064594 -0.01204078
-0.05757784 0.00064594 -0.01204078
-0.05757784 0.00064594 -0.00147356
-0.05751665 0.00064594 -0.00029869
-0.05719542 0.00064594 0.00116675
-0.05682829 0.00064594 0.00194579
-0.05659883 0.00064594 0.00227594
-0.05633887 0.00064594 0.00256808
-0.05572762 0.00064594 0.00303550
-0.05499462 0.00064594 0.00334712
-0.05413988 0.00064594 0.00350293
-0.05366686 0.00064594 0.00352241
-0.05309448 0.00064594 0.00349899
-0.05204294 0.00064594 0.00331164
-0.05111565 0.00064594 0.00293694
-0.05031264 0.00064594 0.00237490
-0.04995774 0.00064594 0.00202362
-0.04963958 0.00064594 0.00163307
-0.04913052 0.00064594 0.00074932
-0.04879114 0.00064594 -0.00027132
-0.04862146 0.00064594 -0.00142885
-0.04860025 0.00064594 -0.00205894
-0.04860025 0.00064594 -0.01204078
-0.04568341 0.00064594 -0.01204078
-0.04568341 0.00064594 0.00562172
-0.04860025 0.00064594 0.00562172
-0.04860025 0.00064594 0.00287646
-0.04914526 0.00064594 0.00362333
-0.05037154 0.00064594 0.00481429
-0.05105281 0.00064594 0.00525838
-0.05178643 0.00064594 0.00560280
-0.05341643 0.00064594 0.00599642
-0.05431280 0.00064594 0.00604562
-0.05505037 0.00064594 0.00601621
-0.05638641 0.00064594 0.00578092
-0.05753700 0.00064594 0.00531034
-0.05850213 0.00064594 0.00460447
-0.05891515 0.00064594 0.00416330
-0.05928180 0.00064594 0.00366497
-0.05986845 0.00064594 0.00250177
-0.06025954 0.00064594 0.00111652
-0.06045509 0.00064594 -0.00049077
-0.06047954 0.00064594 -0.00137767
3 28 29 0
3 26 27 28
3 24 25 26
3 22 23 24
3 20 21 22
3 18 19 20
3 16 17 18
3 14 15 16
3 28 0 1
3 24 26 28
3 20 22 24
3 13 14 16
3 28 1 2
3 20 24 28
3 13 16 18
3 28 2 3
3 18 20 28
3 12 13 18
3 28 3 4
3 11 12 18
3 28 4 5
3 10 11 18
3 28 5 6
3 9 10 18
3 18 28 6
3 8 9 18
3 18 6 7
3 7 8 18
3 30 59 58
3 58 57 56
3 56 55 54
3 54 53 52
3 52 51 50
3 50 49 48
3 48 47 46
3 46 45 44
3 31 30 58
3 58 56 54
3 54 52 50
3 46 44 43
3 32 31 58
3 58 54 50
3 48 46 43
3 33 32 58
3 58 50 48
3 48 43 42
3 34 33 58
3 48 42 41
3 35 34 58
3 48 41 40
3 36 35 58
3 48 40 39
3 36 58 48
3 48 39 38
3 37 36 48
3 48 38 37
3 30 31 0
3 0 31 1
3 31 32 1
3 1 32 2
3 32 33 2
3 2 33 3
3 33 34 3
3 3 34 4
3 34 35 4
3 4 35 5
3 35 36 5
3 5 36 6
3 36 37 6
3 6 37 7
3 37 38 7
3 7 38 8
3 38 39 8
3 8 39 9
3 39 40 9
3 9 40 10
3 40 41 10
3 10 41 11
3 41 42 11
3 11 42 12
3 42 43 12
3 12 43 13
3 43 44 13
3 13 44 14
3 44 45 14
3 14 45 15
3 45 46 15
3 15 46 16
3 46 47 16
3 16 47 17
3 47 48 17
3 17 48 18
3 48 49 18
3 18 49 19
3 49 50 19
3 19 50 20
3 50 51 20
3 20 51 21
3 51 52 21
3 21 52 22
3 52 53 22
3 22 53 23
3 53 54 23
3 23 54 24
3 54 55 24
3 24 55 25
3 55 56 25
3 25 56 26
3 56 57 26
3 26 57 27
3 57 58 27
3 27 58 28
3 59 30 29
3 29 30 0
3 58 59 28
3 28 59 29
3 108 109 89
3 89 109 110
3 87 88 89
3 85 86 87
3 83 84 85
3 81 82 83
3 79 80 81
3 77 78 79
3 75 76 77
3 73 74 75
3 71 72 73
3 69 70 71
3 67 68 69
3 65 66 67
3 63 64 65
3 61 62 63
3 99 60 61
3 97 98 99
3 95 96 97
3 93 94 95
3 91 92 93
3 89 90 91
3 107 108 89
3 89 110 111
3 85 87 89
3 81 83 85
3 77 79 81
3 73 75 77
3 69 71 73
3 65 67 69
3 61 63 65
3 97 99 61
3 93 95 97
3 89 91 93
3 106 107 89
3 89 111 112
3 81 85 89
3 73 77 81
3 65 69 73
3 97 61 65
3 89 93 97
3 105 106 89
3 89 112 113
3 105 89 97
3 89 113 114
3 104 105 97
3 89 114 115
3 103 104 97
3 81 89 115
3 102 103 97
3 81 115 116
3 101 102 97
3 81 116 117
3 100 101 97
3 81 117 118
3 139 100 97
3 81 118 119
3 138 139 97
3 81 119 120
3 138 97 65
3 81 120 121
3 137 138 65
3 81 121 122
3 136 137 65
3 73 81 122
3 135 136 65
3 73 122 123
3 134 135 65
3 73 123 124
3 133 134 65
3 73 124 125
3 132 133 65
3 73 125 126
3 131 132 65
3 73 126 127
3 131 65 73
3 73 127 128
3 130 131 73
3 73 128 129
3 129 130 73
3 169 189 188
3 190 189 169
3 169 168 167
3 167 166 165
3 165 164 163
3 163 162 161
3 161 160 159
3 159 158 157
3 157 156 155
3 155 154 153
3 153 152 151
3 151 150 149
3 149 148 147
3 147 146 145
3 145 144 143
3 143 142 141
3 141 140 179
3 179 178 177
3 177 176 175
3 175 174 173
3 173 172 171
3 171 170 169
3 169 188 187
3 191 190 169
3 169 167 165
3 165 163 161
3 161 159 157
3 157 155 153
3 153 151 149
3 149 147 145
3 145 143 141
3 141 179 177
3 177 175 173
3 173 171 169
3 169 187 186
3 192 191 169
3 169 165 161
3 161 157 153
3 153 149 145
3 145 141 177
3 177 173 169
3 169 186 185
3 193 192 169
3 177 169 185
3 194 193 169
3 177 185 184
3 195 194 169
3 177 184 183
3 195 169 161
3 177 183 182
3 196 195 161
3 177 182 181
3 197 196 161
3 177 181 180
3 198 197 161
3 177 180 219
3 199 198 161
3 177 219 218
3 200 199 161
3 145 177 218
3 201 200 161
3 145 218 217
3 202 201 161
3 145 217 216
3 202 161 153
3 145 216 215
3 203 202 153
3 145 215 214
3 204 203 153
3 145 214 213
3 205 204 153
3 145 213 212
3 206 205 153
3 145 212 211
3 207 206 153
3 153 145 211
3 208 207 153
3 153 211 210
3 209 208 153
3 153 210 209
3 140 141 60
3 60 141 61
3 141 142 61
3 61 142 62
3 142 143 62
3 62 143 63
3 143 144 63
3 63 144 64
3 144 145 64
3 64 145 65
3 145 146 65
3 65 146 66
3 146 147 66
3 66 147 67
3 147 148 67
3 67 148 68
3 148 149 68
3 68 149 69
3 149 150 69
3 69 150 70
3 150 151 70
3 70 151 71
3 151 152 71
3 71 152 72
3 152 153 72
3 72 153 73
3 153 154 73
3 73 154 74
3 154 155 74
3 74 155 75
3 155 156 75
3 75 156 76
3 156 157 76
3 76 157 77
3 157 158 77
3 77 158 78
3 158 159 78
3 78 159 79
3 159 160 79
3 79 160 80
3 160 161 80
3 80 161 81
3 161 162 81
3 81 162 82
3 162 163 82
3 82 163 83
3 163 164 83
3 83 164 84
3 164 165 84
3 84 165 85
3 165 166 85
3 85 166 86
3 166 167 86
3 86 167 87
3 167 168 87
3 87 168 88
3 168 169 88
3 88 169 89
3 169 170 89
3 89 170 90
3 170 171 90
3 90 171 91
3 171 172 91
3 91 172 92
3 172 173 92
3 92 173 93
3 173 174 93
3 93 174 94
3 174 175 94
3 94 175 95
3 175 176 95
3 95 176 96
3 176 177 96
3 96 177 97
3 177 178 97
3 97 178 98
3 179 140 99
3 99 140 60
3 178 179 98
3 98 179 99
3 180 181 100
3 100 181 101
3 181 182 101
3 101 182 102
3 182 183 102
3 102 183 103
3 183 184 103
3 103 184 104
3 184 185 104
3 104 185 105
3 185 186 105
3 105 186 106
3 186 187 106
3 106 187 107
3 187 188 107
3 107 188 108
3 188 189 108
3 108 189 109
3 189 190 109
3 109 190 110
3 190 191 110
3 110 191 111
3 191 192 111
3 111 192 112
3 192 193 112
3 112 193 113
3 193 194 113
3 113 194 114
3 194 195 114
3 114 195 115
3 195 196 115
3 115 196 116
3 196 197 116
3 116 197 117
3 197 198 117
3 117 198 118
3 198 199 118
3 118 199 119
3 199 200 119
3 119 200 120
3 200 201 120
3 120 201 121
3 201 202 121
3 121 202 122
3 202 203 122
3 122 203 123
3 203 204 123
3 123 204 124
3 204 205 124
3 124 205 125
3 205 206 125
3 125 206 126
3 206 207 126
3 126 207 127
3 207 208 127
3 127 208 128
3 208 209 128
3 128 209 129
3 209 210 129
3 129 210 130
3 210 211 130
3 130 211 131
3 211 212 131
3 131 212 132
3 212 213 132
3 132 213 133
3 213 214 133
3 133 214 134
3 214 215 134
3 134 215 135
3 215 216 135
3 135 216 136
3 216 217 136
3 136 217 137
3 217 218 137
3 137 218 138
3 219 180 139
3 139 180 100
3 218 219 138
3 138 219 139
3 248 249 220
3 245 246 247
3 242 243 244
3 240 241 242
3 238 239 240
3 236 237 238
3 234 235 236
3 232 233 234
3 230 231 232
3 221 222 223
3 247 248 220
3 244 245 247
3 240 242 244
3 236 238 240
3 232 234 236
3 229 230 232
3 220 221 223
3 244 247 220
3 236 240 244
3 229 232 236
3 244 220 223
3 228 229 236
3 244 223 224
3 227 228 236
3 244 224 225
3 226 227 236
3 244 225 226
3 226 236 244
3 250 279 278
3 277 276 275
3 274 273 272
3 272 271 270
3 270 269 268
3 268 267 266
3 266 265 264
3 264 263 262
3 262 261 260
3 253 252 251
3 250 278 277
3 277 275 274
3 274 272 270
3 270 268 266
3 266 264 262
3 262 260 259
3 253 251 250
3 250 277 274
3 274 270 266
3 266 262 259
3 253 250 274
3 266 259 258
3 254 253 274
3 266 258 257
3 255 254 274
3 266 257 256
3 256 255 274
3 274 266 256
3 250 251 220
3 220 251 221
3 251 252 221
3 221 252 222
3 252 253 222
3 222 253 223
3 253 254 223
3 223 254 224
3 254 255 224
3 224 255 225
3 255 256 225
3 225 256 226
3 256 257 226
3 226 257 227
3 257 258 227
3 227 258 228
3 258 259 228
3 228 259 229
3 259 260 229
3 229 260 230
3 260 261 230
3 230 261 231
3 261 262 231
3 231 262 232
3 262 263 232
3 232 263 233
3 263 264 233
3 233 264 234
3 264 265 234
3 234 265 235
3 265 266 235
3 235 266 236
3 266 267 236
3 236 267 237
3 267 268 237
3 237 268 238
3 268 269 238
3 238 269 239
3 269 270 239
3 239 270 240
3 270 271 240
3 240 271 241
3 271 272 241
3 241 272 242
3 272 273 242
3 242 273 243
3 273 274 243
3 243 274 244
3 274 275 244
3 244 275 245
3 275 276 245
3 245 276 246
3 276 277 246
3 246 277 247
3 277 278 247
3 247 278 248
3 279 250 249
3 249 250 220
3 278 279 248
3 248 279 249
3 348 349 298
3 298 349 350
3 296 297 298
3 294 295 296
3 292 293 294
3 290 291 292
3 288 289 290
3 286 287 288
3 284 285 286
3 282 283 284
3 280 281 282
3 339 340 280
3 337 338 339
3 335 336 337
3 333 334 335
3 331 332 333
3 329 330 331
3 327 328 329
3 325 326 327
3 307 308 309
3 305 306 307
3 303 304 305
3 301 302 303
3 299 300 301
3 348 298 299
3 298 350 351
3 294 296 298
3 290 292 294
3 286 288 290
3 282 284 286
3 339 280 282
3 335 337 339
3 331 333 335
3 327 329 331
3 324 325 327
3 305 307 309
3 301 303 305
3 348 299 301
3 298 351 352
3 290 294 298
3 282 286 290
3 335 339 282
3 327 331 335
3 323 324 327
3 301 305 309
3 347 348 301
3 298 352 353
3 322 323 327
3 346 347 301
3 290 298 353
3 321 322 327
3 345 346 301
3 290 353 354
3 320 321 327
3 344 345 301
3 290 354 355
3 320 327 335
3 343 344 301
3 290 355 356
3 319 320 335
3 343 301 309
3 290 356 357
3 318 319 335
3 342 343 309
3 290 357 358
3 317 318 335
3 341 342 309
3 282 290 358
3 316 317 335
3 367 341 309
3 282 358 359
3 315 316 335
3 366 367 309
3 282 359 360
3 314 315 335
3 282 360 361
3 313 314 335
3 282 361 362
3 312 313 335
3 282 362 363
3 311 312 335
3 282 363 364
3 310 311 335
3 282 364 365
3 309 310 335
3 335 282 365
3 366 309 335
3 335 365 366
3 386 437 436
3 438 437 386
3 386 385 384
3 384 383 382
3 382 381 380
3 380 379 378
3 378 377 376
3 376 375 374
3 374 373 372
3 372 371 370
3 370 369 368
3 368 428 427
3 427 426 425
3 425 424 423
3 423 422 421
3 421 420 419
3 419 418 417
3 417 416 415
3 415 414 413
3 397 396 395
3 395 394 393
3 393 392 391
3 391 390 389
3 389 388 387
3 387 386 436
3 439 438 386
3 386 384 382
3 382 380 378
3 378 376 374
3 374 372 370
3 370 368 427
3 427 425 423
3 423 421 419
3 419 417 415
3 415 413 412
3 397 395 393
3 393 391 389
3 389 387 436
3 440 439 386
3 386 382 378
3 378 374 370
3 370 427 423
3 423 419 415
3 415 412 411
3 397 393 389
3 389 436 435
3 441 440 386
3 415 411 410
3 389 435 434
3 441 386 378
3 415 410 409
3 389 434 433
3 442 441 378
3 415 409 408
3 389 433 432
3 443 442 378
3 423 415 408
3 389 432 431
3 444 443 378
3 423 408 407
3 397 389 431
3 445 444 378
3 423 407 406
3 397 431 430
3 446 445 378
3 423 406 405
3 397 430 429
3 446 378 370
3 423 405 404
3 397 429 455
3 447 446 370
3 423 404 403
3 397 455 454
3 448 447 370
3 423 403 402
3 449 448 370
3 423 402 401
3 450 449 370
3 423 401 400
3 451 450 370
3 423 400 399
3 452 451 370
3 423 399 398
3 453 452 370
3 423 398 397
3 453 370 423
3 423 397 454
3 454 453 423
3 368 369 280
3 280 369 281
3 369 370 281
3 281 370 282
3 370 371 282
3 282 371 283
3 371 372 283
3 283 372 284
3 372 373 284
3 284 373 285
3 373 374 285
3 285 374 286
3 374 375 286
3 286 375 287
3 375 376 287
3 287 376 288
3 376 377 288
3 288 377 289
3 377 378 289
3 289 378 290
3 378 379 290
3 290 379 291
3 379 380 291
3 291 380 292
3 380 381 292
3 292 381 293
3 381 382 293
3 293 382 294
3 382 383 294
3 294 383 295
3 383 384 295
3 295 384 296
3 384 385 296
3 296 385 297
3 385 386 297
3 297 386 298
3 386 387 298
3 298 387 299
3 387 388 299
3 299 388 300
3 388 389 300
3 300 389 301
3 389 390 301
3 301 390 302
3 390 391 302
3 302 391 303
3 391 392 303
3 303 392 304
3 392 393 304
3 304 393 305
3 393 394 305
3 305 394 306
3 394 395 306
3 306 395 307
3 395 396 307
3 307 396 308
3 396 397 308
3 308 397 309
3 397 398 309
3 309 398 310
3 398 399 310
3 310 399 311
3 399 400 311
3 311 400 312
3 400 401 312
3 312 401 313
3 401 402 313
3 313 402 314
3 402 403 314
3 314 403 315
3 403 404 315
3 315 404 316
3 404 405 316
3 316 405 317
3 405 406 317
3 317 406 318
3 406 407 318
3 318 407 319
3 407 408 319
3 319 408 320
3 408 409 320
3 320 409 321
3 409 410 321
3 321 410 322
3 410 411 322
3 322 411 323
3 411 412 323
3 323 412 324
3 412 413 324
3 324 413 325
3 413 414 325
3 325 414 326
3 414 415 326
3 326 415 327
3 415 416 327
3 327 416 328
3 416 417 328
3 328 417 329
3 417 418 329
3 329 418 330
3 418 419 330
3 330 419 331
3 419 420 331
3 331 420 332
3 420 421 332
3 332 421 333
3 421 422 333
3 333 422 334
3 422 423 334
3 334 423 335
3 423 424 335
3 335 424 336
3 424 425 336
3 336 425 337
3 425 426 337
3 337 426 338
3 426 427 338
3 338 427 339
3 428 368 340
3 340 368 280
3 427 428 339
3 339 428 340
3 429 430 341
3 341 430 342
3 430 431 342
3 342 431 343
3 431 432 343
3 343 432 344
3 432 433 344
3 344 433 345
3 433 434 345
3 345 434 346
3 434 435 346
3 346 435 347
3 435 436 347
3 347 436 348
3 436 437 348
3 348 437 349
3 437 438 349
3 349 438 350
3 438 439 350
3 350 439 351
3 439 440 351
3 351 440 352
3 440 441 352
3 352 441 353
3 441 442 353
3 353 442 354
3 442 443 354
3 354 443 355
3 443 444 355
3 355 444 356
3 444 445 356
3 356 445 357
3 445 446 357
3 357 446 358
3 446 447 358
3 358 447 359
3 447 448 359
3 359 448 360
3 448 449 360
3 360 449 361
3 449 450 361
3 361 450 362
3 450 451 362
3 362 451 363
3 451 452 363
3 363 452 364
3 452 453 364
3 364 453 365
3 453 454 365
3 365 454 366
3 455 429 367
3 367 429 341
3 454 455 366
3 366 455 367
3 484 485 456
3 481 482 483
3 478 479 480
3 476 477 478
3 474 475 476
3 472 473 474
3 470 471 472
3 468 469 470
3 466 467 468
3 457 458 459
3 483 484 456
3 480 481 483
3 476 478 480
3 472 474 476
3 468 470 472
3 465 466 468
3 456 457 459
3 480 483 456
3 472 476 480
3 465 468 472
3 480 456 459
3 464 465 472
3 480 459 460
3 463 464 472
3 480 460 461
3 462 463 472
3 480 461 462
3 462 472 480
3 486 515 514
3 513 512 511
3 510 509 508
3 508 507 506
3 506 505 504
3 504 503 502
3 502 501 500
3 500 499 498
3 498 497 496
3 489 488 487
3 486 514 513
3 513 511 510
3 510 508 506
3 506 504 502
3 502 500 498
3 498 496 495
3 489 487 486
3 486 513 510
3 510 506 502
3 502 498 495
3 489 486 510
3 502 495 494
3 490 489 510
3 502 494 493
3 491 490 510
3 502 493 492
3 492 491 510
3 510 502 492
3 486 487 456
3 456 487 457
3 487 488 457
3 457 488 458
3 488 489 458
3 458 489 459
3 489 490 459
3 459 490 460
3 490 491 460
3 460 491 461
3 491 492 461
3 461 492 462
3 492 493 462
3 462 493 463
3 493 494 463
3 463 494 464
3 494 495 464
3 464 495 465
3 495 496 465
3 465 496 466
3 496 497 466
3 466 497 467
3 497 498 467
3 467 498 468
3 498 499 468
3 468 499 469
3 499 500 469
3 469 500 470
3 500 501 470
3 470 501 471
3 501 502 471
3 471 502 472
3 502 503 472
3 472 503 473
3 503 504 473
3 473 504 474
3 504 505 474
3 474 505 475
3 505 506 475
3 475 506 476
3 506 507 476
3 476 507 477
3 507 508 477
3 477 508 478
3 508 509 478
3 478 509 479
3 509 510 479
3 479 510 480
3 510 511 480
3 480 511 481
3 511 512 481
3 481 512 482
3 512 513 482
3 482 513 483
3 513 514 483
3 483 514 484
3 515 486 485
3 485 486 456
3 514 515 484
3 484 515 485
3 518 519 516
3 516 517 518
3 520 523 522
3 522 521 520
3 520 521 516
3 516 521 517
3 521 522 517
3 517 522 518
3 523 520 519
3 519 520 516
3 522 523 518
3 518 523 519
3 526 527 524
3 524 525 526
3 528 531 530
3 530 529 528
3 528 529 524
3 524 529 525
3 529 530 525
3 525 530 526
3 531 528 527
3 527 528 524
3 530 531 526
3 526 531 527
3 580 581 561
3 561 581 582
3 559 560 561
3 557 558 559
3 555 556 557
3 553 554 555
3 551 552 553
3 549 550 551
3 547 548 549
3 545 546 547
3 543 544 545
3 541 542 543
3 539 540 541
3 537 538 539
3 535 536 537
3 533 534 535
3 571 532 533
3 569 570 571
3 567 568 569
3 565 566 567
3 563 564 565
3 561 562 563
3 579 580 561
3 561 582 583
3 557 559 561
3 553 555 557
3 549 551 553
3 545 547 549
3 541 543 545
3 537 539 541
3 533 535 537
3 569 571 533
3 565 567 569
3 561 563 565
3 578 579 561
3 561 583 584
3 553 557 561
3 545 549 553
3 537 541 545
3 569 533 537
3 561 565 569
3 577 578 561
3 561 584 585
3 577 561 569
3 561 585 586
3 576 577 569
3 561 586 587
3 575 576 569
3 553 561 587
3 574 575 569
3 553 587 588
3 573 574 569
3 553 588 589
3 572 573 569
3 553 589 590
3 611 572 569
3 553 590 591
3 610 611 569
3 553 591 592
3 610 569 537
3 553 592 593
3 609 610 537
3 553 593 594
3 608 609 537
3 545 553 594
3 607 608 537
3 545 594 595
3 606 607 537
3 545 595 596
3 605 606 537
3 545 596 597
3 604 605 537
3 545 597 598
3 603 604 537
3 545 598 599
3 603 537 545
3 545 599 600
3 602 603 545
3 545 600 601
3 601 602 545
3 641 661 660
3 662 661 641
3 641 640 639
3 639 638 637
3 637 636 635
3 635 634 633
3 633 632 631
3 631 630 629
3 629 628 627
3 627 626 625
3 625 624 623
3 623 622 621
3 621 620 619
3 619 618 617
3 617 616 615
3 615 614 613
3 613 612 651
3 651 650 649
3 649 648 647
3 647 646 645
3 645 644 643
3 643 642 641
3 641 660 659
3 663 662 641
3 641 639 637
3 637 635 633
3 633 631 629
3 629 627 625
3 625 623 621
3 621 619 617
3 617 615 613
3 613 651 649
3 649 647 645
3 645 643 641
3 641 659 658
3 664 663 641
3 641 637 633
3 633 629 625
3 625 621 617
3 617 613 649
3 649 645 641
3 641 658 657
3 665 664 641
3 649 641 657
3 666 665 641
3 649 657 656
3 667 666 641
3 649 656 655
3 667 641 633
3 649 655 654
3 668 667 633
3 649 654 653
3 669 668 633
3 649 653 652
3 670 669 633
3 649 652 691
3 671 670 633
3 649 691 690
3 672 671 633
3 617 649 690
3 673 672 633
3 617 690 689
3 674 673 633
3 617 689 688
3 674 633 625
3 617 688 687
3 675 674 625
3 617 687 686
3 676 675 625
3 617 686 685
3 677 676 625
3 617 685 684
3 678 677 625
3 617 684 683
3 679 678 625
3 625 617 683
3 680 679 625
3 625 683 682
3 681 680 625
3 625 682 681
3 612 613 532
3 532 613 533
3 613 614 533
3 533 614 534
3 614 615 534
3 534 615 535
3 615 616 535
3 535 616 536
3 616 617 536
3 536 617 537
3 617 618 537
3 537 618 538
3 618 619 538
3 538 619 539
3 619 620 539
3 539 620 540
3 620 621 540
3 540 621 541
3 621 622 541
3 541 622 542
3 622 623 542
3 542 623 543
3 623 624 543
3 543 624 544
3 624 625 544
3 544 625 545
3 625 626 545
3 545 626 546
3 626 627 546
3 546 627 547
3 627 628 547
3 547 628 548
3 628 629 548
3 548 629 549
3 629 630 549
3 549 630 550
3 630 631 550
3 550 631 551
3 631 632 551
3 551 632 552
3 632 633 552
3 552 633 553
3 633 634 553
3 553 634 554
3 634 635 554
3 554 635 555
3 635 636 555
3 555 636 556
3 636 637 556
3 556 637 557
3 637 638 557
3 557 638 558
3 638 639 558
3 558 639 559
3 639 640 559
3 559 640 560
3 640 641 560
3 560 641 561
3 641 642 561
3 561 642 562
3 642 643 562
3 562 643 563
3 643 644 563
3 563 644 564
3 644 645 564
3 564 645 565
3 645 646 565
3 565 646 566
3 646 647 566
3 566 647 567
3 647 648 567
3 567 648 568
3 648 649 568
3 568 649 569
3 649 650 569
3 569 650 570
3 651 612 571
3 571 612 532
3 650 651 570
3 570 651 571
3 652 653 572
3 572 653 573
3 653 654 573
3 573 654 574
3 654 655 574
3 574 655 575
3 655 656 575
3 575 656 576
3 656 657 576
3 576 657 577
3 657 658 577
3 577 658 578
3 658 659 578
3 578 659 579
3 659 660 579
3 579 660 580
3 660 661 580
3 580 661 581
3 661 662 581
3 581 662 582
3 662 663 582
3 582 663 583
3 663 664 583
3 583 664 584
3 664 665 584
3 584 665 585
3 665 666 585
3 585 666 586
3 666 667 586
3 586 667 587
3 667 668 587
3 587 668 588
3 668 669 588
3 588 669 589
3 669 670 589
3 589 670 590
3 670 671 590
3 590 671 591
3 671 672 591
3 591 672 592
3 672 673 592
3 592 673 593
3 673 674 593
3 593 674 594
3 674 675 594
3 594 675 595
3 675 676 595
3 595 676 596
3 676 677 596
3 596 677 597
3 677 678 597
3 597 678 598
3 678 679 598
3 598 679 599
3 679 680 599
3 599 680 600
3 680 681 600
3 600 681 601
3 681 682 601
3 601 682 602
3 682 683 602
3 602 683 603
3 683 684 603
3 603 684 604
3 684 685 604
3 604 685 605
3 685 686 605
3 605 686 606
3 686 687 606
3 606 687 607
3 687 688 607
3 607 688 608
3 688 689 608
3 608 689 609
3 689 690 609
3 609 690 610
3 691 652 611
3 611 652 572
3 690 691 610
3 610 691 611
3 733 734 692
3 731 732 733
3 729 730 731
3 727 728 729
3 725 726 727
3 723 724 725
3 721 722 723
3 719 720 721
3 716 717 718
3 714 715 716
3 692 693 694
3 731 733 692
3 727 729 731
3 723 725 727
3 719 721 723
3 713 714 716
3 692 694 695
3 727 731 692
3 719 723 727
3 713 716 718
3 692 695 696
3 718 719 727
3 712 713 718
3 727 692 696
3 711 712 718
3 727 696 697
3 710 711 718
3 727 697 698
3 709 710 718
3 727 698 699
3 708 709 718
3 727 699 700
3 707 708 718
3 727 700 701
3 706 707 718
3 727 701 702
3 705 706 718
3 727 702 703
3 705 718 727
3 727 703 704
3 704 705 727
3 735 777 776
3 776 775 774
3 774 773 772
3 772 771 770
3 770 769 768
3 768 767 766
3 766 765 764
3 764 763 762
3 761 760 759
3 759 758 757
3 737 736 735
3 735 776 774
3 774 772 770
3 770 768 766
3 766 764 762
3 759 757 756
3 738 737 735
3 735 774 770
3 770 766 762
3 761 759 756
3 739 738 735
3 770 762 761
3 761 756 755
3 739 735 770
3 761 755 754
3 740 739 770
3 761 754 753
3 741 740 770
3 761 753 752
3 742 741 770
3 761 752 751
3 743 742 770
3 761 751 750
3 744 743 770
3 761 750 749
3 745 744 770
3 761 749 748
3 746 745 770
3 770 761 748
3 747 746 770
3 770 748 747
3 735 736 692
3 692 736 693
3 736 737 693
3 693 737 694
3 737 738 694
3 694 738 695
3 738 739 695
3 695 739 696
3 739 740 696
3 696 740 697
3 740 741 697
3 697 741 698
3 741 742 698
3 698 742 699
3 742 743 699
3 699 743 700
3 743 744 700
3 700 744 701
3 744 745 701
3 701 745 702
3 745 746 702
3 702 746 703
3 746 747 703
3 703 747 704
3 747 748 704
3 704 748 705
3 748 749 705
3 705 749 706
3 749 750 706
3 706 750 707
3 750 751 707
3 707 751 708
3 751 752 708
3 708 752 709
3 752 753 709
3 709 753 710
3 753 754 710
3 710 754 711
3 754 755 711
3 711 755 712
3 755 756 712
3 712 756 713
3 756 757 713
3 713 757 714
3 757 758 714
3 714 758 715
3 758 759 715
3 715 759 716
3 759 760 716
3 716 760 717
3 760 761 717
3 717 761 718
3 761 762 718
3 718 762 719
3 762 763 719
3 719 763 720
3 763 764 720
3 720 764 721
3 764 765 721
3 721 765 722
3 765 766 722
3 722 766 723
3 766 767 723
3 723 767 724
3 767 768 724
3 724 768 725
3 768 769 725
3 725 769 726
3 769 770 726
3 726 770 727
3 770 771 727
3 727 771 728
3 771 772 728
3 728 772 729
3 772 773 729
3 729 773 730
3 773 774 730
3 730 774 731
3 774 775 731
3 731 775 732
3 775 776 732
3 732 776 733
3 777 735 734
3 734 735 692
3 776 777 733
3 733 777 734
